<svg width="75" height="75" viewBox="0 0 75 75" fill="none" xmlns="http://www.w3.org/2000/svg">
<path d="M29.9121 25.2558L29.5585 25.6094L29.9121 25.9629L37.7871 33.8379C38.0137 34.0645 38.0137 34.4511 37.7871 34.6777L36.0996 36.3652C35.873 36.5918 35.4864 36.5918 35.2598 36.3652L27.3848 28.4902L27.0312 28.1366L26.6777 28.4902L20.3496 34.8183L19.996 35.1719L20.3496 35.5254L28.2246 43.4004C28.4512 43.627 28.4512 44.0136 28.2246 44.2402L28.2169 44.2479L28.2095 44.2559L26.6715 45.9337C26.5742 46.0267 26.4001 46.0977 26.1875 46.0977C25.9712 46.0977 25.7947 46.0243 25.6985 45.9289C25.6981 45.9285 25.6977 45.9281 25.6973 45.9277L17.9661 38.0559L17.6192 37.7027L17.2626 38.0461L13.4657 41.7023L13.4656 41.7023L13.4589 41.7089C10.9562 44.2117 9.78738 47.735 10.0799 51.2446L10.0797 51.2447L10.0811 51.2575L11.0394 60.0191L1.9277 69.1308L1.90257 69.1559L1.88125 69.1844C1.34915 69.8938 1.28745 70.8852 1.9277 71.5254L3.47457 73.0723C4.09124 73.689 5.10988 73.6894 5.72716 73.0737C5.72762 73.0732 5.72809 73.0728 5.72855 73.0723L14.9782 63.9607L23.601 64.9188L23.601 64.919L23.6147 64.9201C27.1276 65.2129 30.6436 64.0418 33.2808 61.551L33.286 61.5461L33.2911 61.5411L58.8848 35.9473L59.2384 35.5938L58.8848 35.2402L39.7598 16.1152L39.4062 15.7616L39.0527 16.1152L29.9121 25.2558ZM60.7837 18.15L66.4102 12.3985L70.1308 16.1192C70.748 16.7363 71.7677 16.7363 72.3848 16.1192L72.3925 16.1115L72.3998 16.1035L73.94 14.4233C74.5488 13.8053 74.546 12.792 73.9317 12.1777L62.8223 1.06832C62.208 0.453995 61.1947 0.451197 60.5768 1.05993L58.8965 2.60017L58.8885 2.60751L58.8808 2.6152C58.2637 3.23233 58.2637 4.25204 58.8808 4.86918L62.6015 8.58984L56.8508 14.2156L49.3254 6.55583L49.3223 6.5527L46.9317 4.16207C46.3145 3.54493 45.2948 3.54493 44.6777 4.16207L39.8964 8.94332C39.2562 9.58357 39.3179 10.5749 39.85 11.2844L39.8713 11.3128L39.8964 11.3379L63.6393 35.0808C64.2606 35.8689 65.4582 35.8689 66.0795 35.0808L70.8379 30.3223C71.4551 29.7052 71.4551 28.6855 70.8379 28.0683L70.8355 28.0659L60.7837 18.15Z" fill="black" stroke="white"/>
</svg>
