<svg width="110" height="110" viewBox="0 0 110 110" fill="none" xmlns="http://www.w3.org/2000/svg">
<circle cx="55" cy="55" r="55" fill="white"/>
<path d="M80.7951 36.6773L80.8212 36.6528L80.8436 36.6248C81.4691 35.8429 81.9375 34.7505 81.9375 33.5C81.9375 31.1145 79.8855 29.0625 77.5 29.0625C76.2495 29.0625 75.1571 29.5309 74.3752 30.1564L74.3472 30.1788L74.3227 30.2049L72.219 32.4489C67.481 37.1779 59.4375 33.7696 59.4375 27.0312V24.0781C59.4375 21.5634 57.3968 19.5 55 19.5C52.4739 19.5 50.4219 21.552 50.4219 24.0781V27.0312C50.4219 33.7696 42.3784 37.1779 37.6404 32.4489L35.5366 30.2049L35.5122 30.1788L35.4842 30.1564C34.7022 29.5309 33.6099 29.0625 32.3594 29.0625C29.9739 29.0625 27.9219 31.1145 27.9219 33.5C27.9219 34.7534 28.3935 35.8662 29.1933 36.6661L31.3027 38.7754C36.0465 43.5193 32.6223 51.5625 26.0312 51.5625H22.9375H22.9375H22.9375H22.9375H22.9374H22.9374H22.9374H22.9374H22.9374H22.9373H22.9373H22.9373H22.9373H22.9373H22.9372H22.9372H22.9372H22.9372H22.9372H22.9371H22.9371H22.9371H22.9371H22.9371H22.9371H22.937H22.937H22.937H22.937H22.937H22.9369H22.9369H22.9369H22.9369H22.9369H22.9368H22.9368H22.9368H22.9368H22.9367H22.9367H22.9367H22.9367H22.9366H22.9366H22.9366H22.9365H22.9365H22.9365H22.9365H22.9364H22.9364H22.9364H22.9363H22.9363H22.9363H22.9362H22.9362H22.9361H22.9361H22.9361H22.936H22.936H22.9359H22.9359H22.9359H22.9358H22.9358H22.9357H22.9357H22.9356H22.9356H22.9356H22.9355H22.9355H22.9354H22.9354H22.9353H22.9353H22.9352H22.9351H22.9351H22.935H22.935H22.9349H22.9349H22.9348H22.9347H22.9347H22.9346H22.9346H22.9345H22.9344H22.9344H22.9343H22.9342H22.9342H22.9341H22.934H22.934H22.9339H22.9338H22.9337H22.9337H22.9336H22.9335H22.9334H22.9334H22.9333H22.9332H22.9331H22.933H22.933H22.9329H22.9328H22.9327H22.9326H22.9325H22.9324H22.9324H22.9323H22.9322H22.9321H22.932H22.9319H22.9318H22.9317H22.9316H22.9315H22.9314H22.9313H22.9312H22.9311H22.931H22.9309H22.9308H22.9306H22.9305H22.9304H22.9303H22.9302H22.9301H22.93H22.9299H22.9297H22.9296H22.9295H22.9294H22.9292H22.9291H22.929H22.9289H22.9287H22.9286H22.9285H22.9283H22.9282H22.9281H22.9279H22.9278H22.9277H22.9275H22.9274H22.9272H22.9271H22.9269H22.9268H22.9266H22.9265H22.9263H22.9262H22.926H22.9259H22.9257H22.9256H22.9254H22.9252H22.9251H22.9249H22.9248H22.9246H22.9244H22.9242H22.9241H22.9239H22.9237H22.9236H22.9234H22.9232H22.923H22.9228H22.9227H22.9225H22.9223H22.9221H22.9219H22.9217H22.9215H22.9213H22.9211H22.9209H22.9207H22.9205H22.9203H22.9201H22.9199H22.9197H22.9195H22.9193H22.9191H22.9189H22.9187H22.9184H22.9182H22.918H22.9178H22.9176H22.9173H22.9171H22.9169H22.9166H22.9164H22.9162H22.9159H22.9157H22.9155H22.9152H22.915H22.9147H22.9145H22.9143H22.914H22.9138H22.9135H22.9132H22.913H22.9127H22.9125H22.9122H22.9119H22.9117H22.9114H22.9111H22.9109H22.9106H22.9103H22.9101H22.9098H22.9095H22.9092H22.9089H22.9086H22.9084H22.9081H22.9078H22.9075H22.9072H22.9069H22.9066H22.9063H22.906H22.9057H22.9054H22.9051H22.9048H22.9044H22.9041H22.9038H22.9035H22.9032H22.9028H22.9025H22.9022H22.9019H22.9015H22.9012H22.9009H22.9005H22.9002H22.8998H22.8995H22.8992H22.8988H22.8985H22.8981H22.8978H22.8974H22.897H22.8967H22.8963H22.896H22.8956H22.8952H22.8948H22.8945H22.8941H22.8937H22.8933H22.893H22.8926H22.8922H22.8918H22.8914H22.891H22.8906H22.8902H22.8898H22.8894H22.889H22.8886H22.8882H22.8878H22.8874H22.887H22.8866H22.8861H22.8857H22.8853H22.8849H22.8844H22.884H22.8836H22.8831H22.8827H22.8822H22.8818H22.8814H22.8809H22.8805H22.88H22.8796H22.8791H22.8786H22.8782H22.8777H22.8772H22.8768H22.8763H22.8758H22.8753H22.8749H22.8744H22.8739H22.8734H22.8729H22.8724H22.8719H22.8714H22.8709H22.8704H22.8699H22.8694H22.8689H22.8684H22.8679H22.8674H22.8669H22.8663H22.8658H22.8653H22.8648H22.8642H22.8637H22.8632H22.8626H22.8621H22.8615H22.861H22.8604H22.8599H22.8593H22.8588H22.8582H22.8576H22.8571H22.8565H22.8559H22.8554H22.8548H22.8542H22.8536H22.853H22.8524H22.8519H22.8513H22.8507H22.8501H22.8495H22.8489H22.8482H22.8476H22.847H22.8464H22.8458H22.8452H22.8445H22.8439H22.8433H22.8427H22.842H22.8414H22.8407H22.8401H22.8395H22.8388H22.8382H22.8375H22.8368H22.8362H22.8355H22.8349H22.8342H22.8335H22.8328H22.8322H22.8315H22.8308H22.8301H22.8294H22.8287H22.828H22.8273H22.8266H22.8259H22.8252H22.8245H22.8238H22.8231H22.8224H22.8216H22.8209H22.8202H22.8194H22.8187H22.818H22.8172H22.8165H22.8157H22.815H22.8142H22.8135H22.8127H22.812H22.8112H22.8104H22.8097H22.8089H22.8081H22.8073H22.8065H22.8057H22.805H22.8042H22.8034H22.8026H22.8018H22.801H22.8001H22.7993H22.7985H22.7977H22.7969C20.4114 51.5625 18.3594 53.6145 18.3594 56C18.3594 58.5147 20.4001 60.5781 22.7969 60.5781H22.7977H22.7985H22.7993H22.8001H22.801H22.8018H22.8026H22.8034H22.8042H22.805H22.8057H22.8065H22.8073H22.8081H22.8089H22.8097H22.8104H22.8112H22.812H22.8127H22.8135H22.8142H22.815H22.8157H22.8165H22.8172H22.818H22.8187H22.8194H22.8202H22.8209H22.8216H22.8224H22.8231H22.8238H22.8245H22.8252H22.8259H22.8266H22.8273H22.828H22.8287H22.8294H22.8301H22.8308H22.8315H22.8322H22.8328H22.8335H22.8342H22.8349H22.8355H22.8362H22.8368H22.8375H22.8382H22.8388H22.8395H22.8401H22.8407H22.8414H22.842H22.8427H22.8433H22.8439H22.8445H22.8452H22.8458H22.8464H22.847H22.8476H22.8482H22.8489H22.8495H22.8501H22.8507H22.8513H22.8519H22.8524H22.853H22.8536H22.8542H22.8548H22.8554H22.8559H22.8565H22.8571H22.8576H22.8582H22.8588H22.8593H22.8599H22.8604H22.861H22.8615H22.8621H22.8626H22.8632H22.8637H22.8642H22.8648H22.8653H22.8658H22.8663H22.8669H22.8674H22.8679H22.8684H22.8689H22.8694H22.8699H22.8704H22.8709H22.8714H22.8719H22.8724H22.8729H22.8734H22.8739H22.8744H22.8749H22.8753H22.8758H22.8763H22.8768H22.8772H22.8777H22.8782H22.8786H22.8791H22.8796H22.88H22.8805H22.8809H22.8814H22.8818H22.8822H22.8827H22.8831H22.8836H22.884H22.8844H22.8849H22.8853H22.8857H22.8861H22.8866H22.887H22.8874H22.8878H22.8882H22.8886H22.889H22.8894H22.8898H22.8902H22.8906H22.891H22.8914H22.8918H22.8922H22.8926H22.893H22.8933H22.8937H22.8941H22.8945H22.8948H22.8952H22.8956H22.896H22.8963H22.8967H22.897H22.8974H22.8978H22.8981H22.8985H22.8988H22.8992H22.8995H22.8998H22.9002H22.9005H22.9009H22.9012H22.9015H22.9019H22.9022H22.9025H22.9028H22.9032H22.9035H22.9038H22.9041H22.9044H22.9048H22.9051H22.9054H22.9057H22.906H22.9063H22.9066H22.9069H22.9072H22.9075H22.9078H22.9081H22.9084H22.9086H22.9089H22.9092H22.9095H22.9098H22.9101H22.9103H22.9106H22.9109H22.9111H22.9114H22.9117H22.9119H22.9122H22.9125H22.9127H22.913H22.9132H22.9135H22.9138H22.914H22.9143H22.9145H22.9147H22.915H22.9152H22.9155H22.9157H22.9159H22.9162H22.9164H22.9166H22.9169H22.9171H22.9173H22.9176H22.9178H22.918H22.9182H22.9184H22.9187H22.9189H22.9191H22.9193H22.9195H22.9197H22.9199H22.9201H22.9203H22.9205H22.9207H22.9209H22.9211H22.9213H22.9215H22.9217H22.9219H22.9221H22.9223H22.9225H22.9227H22.9228H22.923H22.9232H22.9234H22.9236H22.9237H22.9239H22.9241H22.9242H22.9244H22.9246H22.9248H22.9249H22.9251H22.9252H22.9254H22.9256H22.9257H22.9259H22.926H22.9262H22.9263H22.9265H22.9266H22.9268H22.9269H22.9271H22.9272H22.9274H22.9275H22.9277H22.9278H22.9279H22.9281H22.9282H22.9283H22.9285H22.9286H22.9287H22.9289H22.929H22.9291H22.9292H22.9294H22.9295H22.9296H22.9297H22.9299H22.93H22.9301H22.9302H22.9303H22.9304H22.9305H22.9306H22.9308H22.9309H22.931H22.9311H22.9312H22.9313H22.9314H22.9315H22.9316H22.9317H22.9318H22.9319H22.932H22.9321H22.9322H22.9323H22.9324H22.9324H22.9325H22.9326H22.9327H22.9328H22.9329H22.933H22.933H22.9331H22.9332H22.9333H22.9334H22.9334H22.9335H22.9336H22.9337H22.9337H22.9338H22.9339H22.934H22.934H22.9341H22.9342H22.9342H22.9343H22.9344H22.9344H22.9345H22.9346H22.9346H22.9347H22.9347H22.9348H22.9349H22.9349H22.935H22.935H22.9351H22.9351H22.9352H22.9353H22.9353H22.9354H22.9354H22.9355H22.9355H22.9356H22.9356H22.9356H22.9357H22.9357H22.9358H22.9358H22.9359H22.9359H22.9359H22.936H22.936H22.9361H22.9361H22.9361H22.9362H22.9362H22.9363H22.9363H22.9363H22.9364H22.9364H22.9364H22.9365H22.9365H22.9365H22.9365H22.9366H22.9366H22.9367H22.9367H22.9368H22.9368H22.9369H22.9369H22.9369H22.937H22.937H22.9371H22.9371H22.9371H22.9372H22.9372H22.9372H22.9373H22.9373H22.9373H22.9374H22.9374H22.9374H22.9375H22.9375H26.0312C32.6223 60.5781 36.0465 68.6214 31.3027 73.3652L29.1933 75.4746C28.3935 76.2744 27.9219 77.3872 27.9219 78.6406C27.9219 81.0261 29.9739 83.0781 32.3594 83.0781C33.6128 83.0781 34.7256 82.6065 35.5254 81.8067L37.6348 79.6973C42.3786 74.9535 50.4219 78.3777 50.4219 84.9688V88.0625C50.4219 90.6114 52.4971 92.5 55 92.5C57.3738 92.5 59.4375 90.6002 59.4375 88.0625V84.9688C59.4375 78.3777 67.4807 74.9535 72.2246 79.6973L74.3339 81.8067C75.1338 82.6065 76.2466 83.0781 77.5 83.0781C79.8855 83.0781 81.9375 81.0261 81.9375 78.6406C81.9375 77.3901 81.4691 76.2978 80.8436 75.5158L80.8212 75.4878L80.7951 75.4634L78.551 73.3596C73.8156 68.615 77.2397 60.5781 83.8281 60.5781H86.9219H86.9219H86.922H86.9221H86.9221H86.9222H86.9222H86.9223H86.9224H86.9225H86.9225H86.9226H86.9227H86.9227H86.9228H86.9229H86.923H86.923H86.9231H86.9232H86.9232H86.9233H86.9234H86.9235H86.9236H86.9236H86.9237H86.9238H86.9239H86.924H86.9241H86.9242H86.9243H86.9245H86.9246H86.9246H86.9247H86.9248H86.9248H86.9249H86.9249H86.925H86.9251H86.9251H86.9252H86.9253H86.9253H86.9254H86.9255H86.9256H86.9256H86.9257H86.9258H86.9258H86.9259H86.926H86.9261H86.9262H86.9262H86.9263H86.9264H86.9265H86.9266H86.9267H86.9268H86.9268H86.9269H86.927H86.9271H86.9272H86.9273H86.9274H86.9275H86.9276H86.9277H86.9278H86.9279H86.928H86.9281H86.9282H86.9283H86.9284H86.9285H86.9286H86.9287H86.9288H86.9289H86.9291H86.9292H86.9293H86.9294H86.9295H86.9296H86.9298H86.9299H86.93H86.9301H86.9303H86.9304H86.9305H86.9306H86.9308H86.9309H86.931H86.9312H86.9313H86.9314H86.9316H86.9317H86.9319H86.932H86.9321H86.9323H86.9324H86.9326H86.9327H86.9329H86.933H86.9332H86.9333H86.9335H86.9337H86.9338H86.934H86.9341H86.9343H86.9345H86.9346H86.9348H86.935H86.9351H86.9353H86.9355H86.9356H86.9358H86.936H86.9362H86.9364H86.9365H86.9367H86.9369H86.9371H86.9373H86.9375H86.9377H86.9379H86.938H86.9382H86.9384H86.9386H86.9388H86.939H86.9392H86.9395H86.9397H86.9399H86.9401H86.9403H86.9405H86.9407H86.9409H86.9412H86.9414H86.9416H86.9418H86.942H86.9423H86.9425H86.9427H86.943H86.9432H86.9434H86.9437H86.9439H86.9441H86.9444H86.9446H86.9449H86.9451H86.9454H86.9456H86.9459H86.9461H86.9464H86.9466H86.9469H86.9472H86.9474H86.9477H86.948H86.9482H86.9485H86.9488H86.9491H86.9493H86.9496H86.9499H86.9502H86.9504H86.9507H86.951H86.9513H86.9516H86.9519H86.9522H86.9525H86.9528H86.9531H86.9534H86.9537H86.954H86.9543H86.9546H86.9549H86.9553H86.9556H86.9559H86.9562H86.9565H86.9569H86.9572H86.9575H86.9578H86.9582H86.9585H86.9588H86.9592H86.9595H86.9599H86.9602H86.9606H86.9609H86.9613H86.9616H86.962H86.9623H86.9627H86.9631H86.9634H86.9638H86.9642H86.9645H86.9649H86.9653H86.9657H86.966H86.9664H86.9668H86.9672H86.9676H86.968H86.9684H86.9688H86.9691H86.9695H86.9699H86.9704H86.9708H86.9712H86.9716H86.972H86.9724H86.9728H86.9732H86.9737H86.9741H86.9745H86.9749H86.9754H86.9758H86.9762H86.9767H86.9771H86.9776H86.978H86.9785H86.9789H86.9794H86.9798H86.9803H86.9807H86.9812H86.9817H86.9821H86.9826H86.9831H86.9836H86.984H86.9845H86.985H86.9855H86.986H86.9865H86.9869H86.9874H86.9879H86.9884H86.9889H86.9894H86.9899H86.9904H86.991H86.9915H86.992H86.9925H86.993H86.9936H86.9941H86.9946H86.9951H86.9957H86.9962H86.9968H86.9973H86.9978H86.9984H86.9989H86.9995H87.0001H87.0006H87.0012H87.0017H87.0023H87.0029H87.0034H87.004H87.0046H87.0052H87.0058H87.0063H87.0069H87.0075H87.0081H87.0087H87.0093H87.0099H87.0105H87.0111H87.0117H87.0123H87.013H87.0136H87.0142H87.0148H87.0154H87.0161H87.0167H87.0173H87.018H87.0186H87.0193H87.0199H87.0206H87.0212H87.0219H87.0225H87.0232H87.0239H87.0245H87.0252H87.0259H87.0265H87.0272H87.0279H87.0286H87.0293H87.03H87.0307H87.0313H87.0321H87.0328H87.0335H87.0342H87.0349H87.0356H87.0363H87.037H87.0378H87.0385H87.0392H87.0399H87.0407H87.0414H87.0421H87.0429H87.0436H87.0444H87.0451H87.0459H87.0467H87.0474H87.0482H87.049H87.0497H87.0505H87.0513H87.0521H87.0528H87.0536H87.0544H87.0552H87.056H87.0568H87.0576H87.0584H87.0592H87.06H87.0609H87.0617H87.0625C89.4593 60.5781 91.5 58.5147 91.5 56C91.5 53.6145 89.448 51.5625 87.0625 51.5625H87.0617H87.0609H87.06H87.0592H87.0584H87.0576H87.0568H87.056H87.0552H87.0544H87.0536H87.0528H87.0521H87.0513H87.0505H87.0497H87.049H87.0482H87.0474H87.0467H87.0459H87.0451H87.0444H87.0436H87.0429H87.0421H87.0414H87.0407H87.0399H87.0392H87.0385H87.0378H87.037H87.0363H87.0356H87.0349H87.0342H87.0335H87.0328H87.0321H87.0313H87.0307H87.03H87.0293H87.0286H87.0279H87.0272H87.0265H87.0259H87.0252H87.0245H87.0239H87.0232H87.0225H87.0219H87.0212H87.0206H87.0199H87.0193H87.0186H87.018H87.0173H87.0167H87.0161H87.0154H87.0148H87.0142H87.0136H87.013H87.0123H87.0117H87.0111H87.0105H87.0099H87.0093H87.0087H87.0081H87.0075H87.0069H87.0063H87.0058H87.0052H87.0046H87.004H87.0034H87.0029H87.0023H87.0017H87.0012H87.0006H87.0001H86.9995H86.9989H86.9984H86.9978H86.9973H86.9968H86.9962H86.9957H86.9951H86.9946H86.9941H86.9936H86.993H86.9925H86.992H86.9915H86.991H86.9904H86.9899H86.9894H86.9889H86.9884H86.9879H86.9874H86.9869H86.9865H86.986H86.9855H86.985H86.9845H86.984H86.9836H86.9831H86.9826H86.9821H86.9817H86.9812H86.9807H86.9803H86.9798H86.9794H86.9789H86.9785H86.978H86.9776H86.9771H86.9767H86.9762H86.9758H86.9754H86.9749H86.9745H86.9741H86.9737H86.9732H86.9728H86.9724H86.972H86.9716H86.9712H86.9708H86.9704H86.9699H86.9695H86.9691H86.9688H86.9684H86.968H86.9676H86.9672H86.9668H86.9664H86.966H86.9657H86.9653H86.9649H86.9645H86.9642H86.9638H86.9634H86.9631H86.9627H86.9623H86.962H86.9616H86.9613H86.9609H86.9606H86.9602H86.9599H86.9595H86.9592H86.9588H86.9585H86.9582H86.9578H86.9575H86.9572H86.9569H86.9565H86.9562H86.9559H86.9556H86.9553H86.9549H86.9546H86.9543H86.954H86.9537H86.9534H86.9531H86.9528H86.9525H86.9522H86.9519H86.9516H86.9513H86.951H86.9507H86.9504H86.9502H86.9499H86.9496H86.9493H86.9491H86.9488H86.9485H86.9482H86.948H86.9477H86.9474H86.9472H86.9469H86.9466H86.9464H86.9461H86.9459H86.9456H86.9454H86.9451H86.9449H86.9446H86.9444H86.9441H86.9439H86.9437H86.9434H86.9432H86.943H86.9427H86.9425H86.9423H86.942H86.9418H86.9416H86.9414H86.9412H86.9409H86.9407H86.9405H86.9403H86.9401H86.9399H86.9397H86.9395H86.9392H86.939H86.9388H86.9386H86.9384H86.9382H86.938H86.9379H86.9377H86.9375H86.9373H86.9371H86.9369H86.9367H86.9365H86.9364H86.9362H86.936H86.9358H86.9356H86.9355H86.9353H86.9351H86.935H86.9348H86.9346H86.9345H86.9343H86.9341H86.934H86.9338H86.9337H86.9335H86.9333H86.9332H86.933H86.9329H86.9327H86.9326H86.9324H86.9323H86.9321H86.932H86.9319H86.9317H86.9316H86.9314H86.9313H86.9312H86.931H86.9309H86.9308H86.9306H86.9305H86.9304H86.9303H86.9301H86.93H86.9299H86.9298H86.9296H86.9295H86.9294H86.9293H86.9292H86.9291H86.9289H86.9288H86.9287H86.9286H86.9285H86.9284H86.9283H86.9282H86.9281H86.928H86.9279H86.9278H86.9277H86.9276H86.9275H86.9274H86.9273H86.9272H86.9271H86.927H86.9269H86.9268H86.9268H86.9267H86.9266H86.9265H86.9264H86.9263H86.9262H86.9262H86.9261H86.926H86.9259H86.9258H86.9258H86.9257H86.9256H86.9256H86.9255H86.9254H86.9253H86.9253H86.9252H86.9251H86.9251H86.925H86.9249H86.9249H86.9248H86.9248H86.9247H86.9246H86.9246H86.9245H86.9244H86.9243H86.9242H86.9241H86.924H86.9239H86.9238H86.9237H86.9236H86.9235H86.9234H86.9233H86.9233H86.9232H86.9231H86.923H86.923H86.9229H86.9229H86.9228H86.9227H86.9226H86.9226H86.9225H86.9224H86.9224H86.9223H86.9222H86.9222H86.9221H86.9221H86.922H86.9219H83.9688C77.2304 51.5625 73.8222 43.519 78.551 38.7811L80.7951 36.6773ZM50.5 57.75C46.9793 57.75 44.25 55.0207 44.25 51.5C44.25 48.1131 46.986 45.25 50.5 45.25C53.8801 45.25 56.75 48.1199 56.75 51.5C56.75 55.014 53.8869 57.75 50.5 57.75ZM61.75 65.625C60.0574 65.625 58.875 64.4426 58.875 62.75C58.875 61.1843 60.071 59.875 61.75 59.875C63.302 59.875 64.625 61.198 64.625 62.75C64.625 64.429 63.3157 65.625 61.75 65.625Z" fill="#42BD17" stroke="black"/>
<mask id="path-3-outside-1_8_83" maskUnits="userSpaceOnUse" x="22" y="20" width="62" height="71" fill="black">
<rect fill="white" x="22" y="20" width="62" height="71"/>
<path fill-rule="evenodd" clip-rule="evenodd" d="M60 31C62.7614 31 65 28.7614 65 26C65 23.2386 62.7614 21 60 21C57.2386 21 55 23.2386 55 26C55 28.7614 57.2386 31 60 31ZM42 40C44.7614 40 47 37.7614 47 35C47 32.2386 44.7614 30 42 30C39.2386 30 37 32.2386 37 35C37 37.7614 39.2386 40 42 40ZM77 47C79.7614 47 82 44.7614 82 42C82 39.2386 79.7614 37 77 37C74.2386 37 72 39.2386 72 42C72 44.7614 74.2386 47 77 47ZM78 66C80.7614 66 83 63.7614 83 61C83 58.2386 80.7614 56 78 56C75.2386 56 73 58.2386 73 61C73 63.7614 75.2386 66 78 66ZM80 81C80 83.7614 77.7614 86 75 86C72.2386 86 70 83.7614 70 81C70 78.2386 72.2386 76 75 76C77.7614 76 80 78.2386 80 81ZM59 77C61.7614 77 64 74.7614 64 72C64 69.2386 61.7614 67 59 67C56.2386 67 54 69.2386 54 72C54 74.7614 56.2386 77 59 77ZM54 85C54 87.7614 51.7614 90 49 90C46.2386 90 44 87.7614 44 85C44 82.2386 46.2386 80 49 80C51.7614 80 54 82.2386 54 85ZM41 70C43.7614 70 46 67.7614 46 65C46 62.2386 43.7614 60 41 60C38.2386 60 36 62.2386 36 65C36 67.7614 38.2386 70 41 70ZM33 50C33 52.7614 30.7614 55 28 55C25.2386 55 23 52.7614 23 50C23 47.2386 25.2386 45 28 45C30.7614 45 33 47.2386 33 50ZM63 41C63 43.7614 60.7614 46 58 46C55.2386 46 53 43.7614 53 41C53 38.2386 55.2386 36 58 36C60.7614 36 63 38.2386 63 41Z"/>
</mask>
<path fill-rule="evenodd" clip-rule="evenodd" d="M60 31C62.7614 31 65 28.7614 65 26C65 23.2386 62.7614 21 60 21C57.2386 21 55 23.2386 55 26C55 28.7614 57.2386 31 60 31ZM42 40C44.7614 40 47 37.7614 47 35C47 32.2386 44.7614 30 42 30C39.2386 30 37 32.2386 37 35C37 37.7614 39.2386 40 42 40ZM77 47C79.7614 47 82 44.7614 82 42C82 39.2386 79.7614 37 77 37C74.2386 37 72 39.2386 72 42C72 44.7614 74.2386 47 77 47ZM78 66C80.7614 66 83 63.7614 83 61C83 58.2386 80.7614 56 78 56C75.2386 56 73 58.2386 73 61C73 63.7614 75.2386 66 78 66ZM80 81C80 83.7614 77.7614 86 75 86C72.2386 86 70 83.7614 70 81C70 78.2386 72.2386 76 75 76C77.7614 76 80 78.2386 80 81ZM59 77C61.7614 77 64 74.7614 64 72C64 69.2386 61.7614 67 59 67C56.2386 67 54 69.2386 54 72C54 74.7614 56.2386 77 59 77ZM54 85C54 87.7614 51.7614 90 49 90C46.2386 90 44 87.7614 44 85C44 82.2386 46.2386 80 49 80C51.7614 80 54 82.2386 54 85ZM41 70C43.7614 70 46 67.7614 46 65C46 62.2386 43.7614 60 41 60C38.2386 60 36 62.2386 36 65C36 67.7614 38.2386 70 41 70ZM33 50C33 52.7614 30.7614 55 28 55C25.2386 55 23 52.7614 23 50C23 47.2386 25.2386 45 28 45C30.7614 45 33 47.2386 33 50ZM63 41C63 43.7614 60.7614 46 58 46C55.2386 46 53 43.7614 53 41C53 38.2386 55.2386 36 58 36C60.7614 36 63 38.2386 63 41Z" fill="#E25232"/>
<path d="M64 26C64 28.2091 62.2091 30 60 30V32C63.3137 32 66 29.3137 66 26H64ZM60 22C62.2091 22 64 23.7909 64 26H66C66 22.6863 63.3137 20 60 20V22ZM56 26C56 23.7909 57.7909 22 60 22V20C56.6863 20 54 22.6863 54 26H56ZM60 30C57.7909 30 56 28.2091 56 26H54C54 29.3137 56.6863 32 60 32V30ZM46 35C46 37.2091 44.2091 39 42 39V41C45.3137 41 48 38.3137 48 35H46ZM42 31C44.2091 31 46 32.7909 46 35H48C48 31.6863 45.3137 29 42 29V31ZM38 35C38 32.7909 39.7909 31 42 31V29C38.6863 29 36 31.6863 36 35H38ZM42 39C39.7909 39 38 37.2091 38 35H36C36 38.3137 38.6863 41 42 41V39ZM81 42C81 44.2091 79.2091 46 77 46V48C80.3137 48 83 45.3137 83 42H81ZM77 38C79.2091 38 81 39.7909 81 42H83C83 38.6863 80.3137 36 77 36V38ZM73 42C73 39.7909 74.7909 38 77 38V36C73.6863 36 71 38.6863 71 42H73ZM77 46C74.7909 46 73 44.2091 73 42H71C71 45.3137 73.6863 48 77 48V46ZM82 61C82 63.2091 80.2091 65 78 65V67C81.3137 67 84 64.3137 84 61H82ZM78 57C80.2091 57 82 58.7909 82 61H84C84 57.6863 81.3137 55 78 55V57ZM74 61C74 58.7909 75.7909 57 78 57V55C74.6863 55 72 57.6863 72 61H74ZM78 65C75.7909 65 74 63.2091 74 61H72C72 64.3137 74.6863 67 78 67V65ZM75 87C78.3137 87 81 84.3137 81 81H79C79 83.2091 77.2091 85 75 85V87ZM69 81C69 84.3137 71.6863 87 75 87V85C72.7909 85 71 83.2091 71 81H69ZM75 75C71.6863 75 69 77.6863 69 81H71C71 78.7909 72.7909 77 75 77V75ZM81 81C81 77.6863 78.3137 75 75 75V77C77.2091 77 79 78.7909 79 81H81ZM63 72C63 74.2091 61.2091 76 59 76V78C62.3137 78 65 75.3137 65 72H63ZM59 68C61.2091 68 63 69.7909 63 72H65C65 68.6863 62.3137 66 59 66V68ZM55 72C55 69.7909 56.7909 68 59 68V66C55.6863 66 53 68.6863 53 72H55ZM59 76C56.7909 76 55 74.2091 55 72H53C53 75.3137 55.6863 78 59 78V76ZM49 91C52.3137 91 55 88.3137 55 85H53C53 87.2091 51.2091 89 49 89V91ZM43 85C43 88.3137 45.6863 91 49 91V89C46.7909 89 45 87.2091 45 85H43ZM49 79C45.6863 79 43 81.6863 43 85H45C45 82.7909 46.7909 81 49 81V79ZM55 85C55 81.6863 52.3137 79 49 79V81C51.2091 81 53 82.7909 53 85H55ZM45 65C45 67.2091 43.2091 69 41 69V71C44.3137 71 47 68.3137 47 65H45ZM41 61C43.2091 61 45 62.7909 45 65H47C47 61.6863 44.3137 59 41 59V61ZM37 65C37 62.7909 38.7909 61 41 61V59C37.6863 59 35 61.6863 35 65H37ZM41 69C38.7909 69 37 67.2091 37 65H35C35 68.3137 37.6863 71 41 71V69ZM28 56C31.3137 56 34 53.3137 34 50H32C32 52.2091 30.2091 54 28 54V56ZM22 50C22 53.3137 24.6863 56 28 56V54C25.7909 54 24 52.2091 24 50H22ZM28 44C24.6863 44 22 46.6863 22 50H24C24 47.7909 25.7909 46 28 46V44ZM34 50C34 46.6863 31.3137 44 28 44V46C30.2091 46 32 47.7909 32 50H34ZM58 47C61.3137 47 64 44.3137 64 41H62C62 43.2091 60.2091 45 58 45V47ZM52 41C52 44.3137 54.6863 47 58 47V45C55.7909 45 54 43.2091 54 41H52ZM58 35C54.6863 35 52 37.6863 52 41H54C54 38.7909 55.7909 37 58 37V35ZM64 41C64 37.6863 61.3137 35 58 35V37C60.2091 37 62 38.7909 62 41H64Z" fill="black" mask="url(#path-3-outside-1_8_83)"/>
</svg>
